# xmcd
#
# Track frame offsets:
#	150
#	13067
#	28610
#	45750
#	60752
#	75345
#	92177
#	109000
#	123512
#	140390
#	152522
#	165432
#	178677
#	195642
#
# Disc length: 2890
#
# Revision: 1
# Processed by: cddbd v1.5.1PL0 Copyright (c) Steve Scherf et al.
# Submitted via: VisiTrax 2.9.3.171 - For more info visit www.synapsa.com
# Normalized: r0:DSETVAR1
#
DISCID=9c0b480e
DTITLE=Various Artist - Mr Music Country 9-01
DYEAR=1900
DGENRE=
TTITLE0=Dale Watson - Tucumcari Here I Come
TTITLE1=Lee Ann Womack - I Feel Like I'm Forgetting Something
TTITLE2=Jimmy laFave and Night Tribe - Oklahoma Hills
TTITLE3=The West Coast Pinups - The Ballad Of Billy And Selina
TTITLE4=Tracy Byrd - Old One Better
TTITLE5=Rebecca Lynn Howard - Was It Hard To Be Together
TTITLE6=Carl Vaughan - The Rodeo Is Over
TTITLE7=Mac McAnally - Out the Window
TTITLE8=Tricha Yearwood - Too Bad You're No Good
TTITLE9=George Strait - Home Improvement
TTITLE10=Susanna van Tassel - I Remember You
TTITLE11=Glynn Martin - Way Down Inside My Heart
TTITLE12=Western Satellites - Old Chevy II
TTITLE13=Reba McEntire - Roses
EXTD=
EXTT0=
EXTT1=
EXTT2=
EXTT3=
EXTT4=
EXTT5=
EXTT6=
EXTT7=
EXTT8=
EXTT9=
EXTT10=
EXTT11=
EXTT12=
EXTT13=
PLAYORDER=
